<svg t="1597113631344" class="icon" viewBox="0 0 1024 1024" version="1.1" xmlns="http://www.w3.org/2000/svg" p-id="1395" width="200" height="200"><path d="M783.36 779.698c46.613 0 84.693-38.614 84.693-85.867 0-57.067-84.693-150.187-84.693-150.187s-84.693 93.12-84.693 150.187c0 47.253 38.08 85.867 84.693 85.867z m-402.24-47.04c7.573 7.573 19.84 7.573 27.307 0L681.6 459.59c7.573-7.573 7.573-19.84 0-27.307L408.533 159.218c-0.64-0.64-1.386-1.28-2.133-1.814l-83.413-83.413c-3.734-3.733-9.92-3.733-13.654 0l-51.2 51.2c-3.733 3.733-3.733 9.92 0 13.653l71.68 71.68-221.653 221.76c-7.573 7.574-7.573 19.84 0 27.307l272.96 273.067z m13.76-478.507l190.827 190.827H204.16L394.88 254.15z m535.253 602.027H93.867c-4.694 0-8.534 3.84-8.534 8.533v85.333c0 4.694 3.84 8.534 8.534 8.534h836.266c4.694 0 8.534-3.84 8.534-8.534v-85.333c0-4.693-3.84-8.533-8.534-8.533z" fill="#333333" p-id="1396"></path></svg>