<?xml version="1.0" standalone="no"?><!DOCTYPE svg PUBLIC "-//W3C//DTD SVG 1.1//EN" "http://www.w3.org/Graphics/SVG/1.1/DTD/svg11.dtd"><svg t="1556595718714" class="icon" style="" viewBox="0 0 1157 1024" version="1.1" xmlns="http://www.w3.org/2000/svg" p-id="5656" xmlns:xlink="http://www.w3.org/1999/xlink" width="36.15625" height="32"><defs><style type="text/css"></style></defs><path d="M688.452 590.102c-34.712-17.356-69.424-34.712-104.136-46.283 86.78-52.068 144.633-144.633 144.633-248.768 0-161.989-127.277-289.266-289.265-289.266S150.418 133.062 150.418 295.051c0 115.706 63.638 208.271 161.989 260.339C144.633 613.243 17.356 769.446 5.785 960.362l57.853 5.785C80.994 740.52 271.91 572.746 497.537 590.102c57.853 5.785 109.92 17.356 156.203 46.282 5.785-17.356 17.356-34.712 34.712-46.282z m-248.768-63.639c-127.277 0-231.413-104.135-231.413-231.412S312.407 63.638 439.684 63.638s231.412 104.136 231.412 231.413S566.96 526.463 439.684 526.463z" p-id="5657" fill="#8a8a8a"></path><path d="M937.22 491.751c-23.14-17.356-52.067-28.926-80.994-40.497 75.209-40.497 121.492-121.491 121.492-208.27C977.718 109.92 867.797 0 734.734 0c-28.926 0-52.067 5.785-80.994 11.57 17.356 11.571 34.712 28.927 46.283 46.283h34.711c104.136 0 185.13 80.994 185.13 185.13 0 92.565-63.638 167.774-150.418 179.345-5.785 23.14-11.57 46.282-23.14 63.638h11.57c46.282 5.785 86.78 17.356 121.491 34.712 17.356-5.785 34.712-17.356 57.853-28.927z m127.277 242.983c-5.785-11.57-5.785-23.14-11.57-34.711-5.786-11.571 40.497-57.854 28.926-69.424l-34.712-34.712c-5.785 0-11.57 0-17.356 5.785-11.57 5.786-28.926 23.142-40.497 28.927-5.785 0-5.785 5.785-11.57 0-11.571-5.785-17.356-11.57-28.927-11.57-11.57-5.786-11.57-69.424-23.141-69.424h-46.283c-11.57 5.785-11.57 63.638-23.141 69.423-11.57 5.786-23.141 5.786-34.712 11.57-11.57 5.786-57.853-40.496-69.424-28.926l-34.711 34.712c-11.571 11.57 34.711 57.853 34.711 69.424-5.785 11.57-11.57 17.356-11.57 28.926l-5.786 5.786c-11.57 5.785-46.282 5.785-63.638 17.356-5.785 0-5.785 5.785-5.785 5.785v46.283c0 17.355 69.423 17.355 69.423 28.926 5.786 11.57 5.786 23.141 11.571 34.712 5.785 11.57-40.497 57.853-28.926 69.424l34.711 34.712c5.786 0 11.571 0 17.356-5.786 11.57-5.785 28.927-23.141 40.498-28.926 5.785 0 5.785-5.786 11.57 0 11.57 5.785 17.356 11.57 28.927 11.57 11.57 5.786 11.57 69.424 23.14 69.424h46.283c11.571-5.785 11.571-63.638 23.142-69.424 11.57-5.785 23.14-5.785 34.712-11.57 11.57-5.786 57.853 40.497 69.423 28.926l34.712-34.712c11.57-11.57-34.712-57.853-34.712-69.423 5.786-11.571 11.57-17.356 11.57-28.927l5.786-5.785c11.57-5.786 46.283-5.786 63.639-17.356 5.785 0 5.785-5.785 5.785-5.785V763.66c0-17.356-63.639-17.356-69.424-28.927zM902.508 885.153c-57.853 0-104.135-46.283-104.135-104.136S844.655 676.88 902.508 676.88s104.136 46.283 104.136 104.136-46.282 104.136-104.136 104.136z" p-id="5658" fill="#8a8a8a"></path></svg>