<?xml version="1.0" standalone="no"?><!DOCTYPE svg PUBLIC "-//W3C//DTD SVG 1.1//EN" "http://www.w3.org/Graphics/SVG/1.1/DTD/svg11.dtd"><svg t="1556526204642" class="icon" style="" viewBox="0 0 1024 1024" version="1.1" xmlns="http://www.w3.org/2000/svg" p-id="2894" xmlns:xlink="http://www.w3.org/1999/xlink" width="32" height="32"><defs><style type="text/css"></style></defs><path d="M853.333333 1024H170.666667c-93.866667 0-170.666667-76.8-170.666667-170.666667V213.333333c0-25.6 17.066667-42.666667 42.666667-42.666666h938.666666c25.6 0 42.666667 17.066667 42.666667 42.666666v640c0 93.866667-76.8 170.666667-170.666667 170.666667zM85.333333 256v597.333333c0 46.933333 38.4 85.333333 85.333334 85.333334h682.666666c46.933333 0 85.333333-38.4 85.333334-85.333334V256H85.333333z" p-id="2895" fill="#8a8a8a"></path><path d="M981.333333 213.333333H42.666667V170.666667c0-72.533333 55.466667-128 128-128h682.666666c72.533333 0 128 55.466667 128 128v42.666666z" p-id="2896" fill="#8a8a8a"></path><path d="M981.333333 256H42.666667c-25.6 0-42.666667-17.066667-42.666667-42.666667V170.666667c0-93.866667 76.8-170.666667 170.666667-170.666667h682.666666c93.866667 0 170.666667 76.8 170.666667 170.666667v42.666666c0 25.6-17.066667 42.666667-42.666667 42.666667zM85.333333 170.666667h853.333334c0-46.933333-38.4-85.333333-85.333334-85.333334H170.666667c-46.933333 0-85.333333 38.4-85.333334 85.333334z" p-id="2897" fill="#8a8a8a"></path><path d="M298.666667 1024c-25.6 0-42.666667-17.066667-42.666667-42.666667V213.333333c0-25.6 17.066667-42.666667 42.666667-42.666666s42.666667 17.066667 42.666666 42.666666v768c0 25.6-17.066667 42.666667-42.666666 42.666667z" p-id="2898" fill="#8a8a8a"></path><path d="M981.333333 512H42.666667c-25.6 0-42.666667-17.066667-42.666667-42.666667s17.066667-42.666667 42.666667-42.666666h938.666666c25.6 0 42.666667 17.066667 42.666667 42.666666s-17.066667 42.666667-42.666667 42.666667z" p-id="2899" fill="#8a8a8a"></path><path d="M981.333333 768H42.666667c-25.6 0-42.666667-17.066667-42.666667-42.666667s17.066667-42.666667 42.666667-42.666666h938.666666c25.6 0 42.666667 17.066667 42.666667 42.666666s-17.066667 42.666667-42.666667 42.666667z" p-id="2900" fill="#8a8a8a"></path></svg>